<?xml version="1.0" encoding="UTF-8" standalone="no"?><!DOCTYPE svg PUBLIC "-//W3C//DTD SVG 1.1//EN" "http://www.w3.org/Graphics/SVG/1.1/DTD/svg11.dtd"><svg width="100%" height="100%" viewBox="0 0 67 67" version="1.1" xmlns="http://www.w3.org/2000/svg" xmlns:xlink="http://www.w3.org/1999/xlink" xml:space="preserve" xmlns:serif="http://www.serif.com/" style="fill-rule:evenodd;clip-rule:evenodd;stroke-linejoin:round;stroke-miterlimit:2;"><path d="M20.314,44.782c-0.438,-0.438 -1.149,-0.438 -1.587,0.001l-7.833,7.84c-0.438,0.438 -0.437,1.15 0.001,1.587l1.587,1.586c0.438,0.438 1.149,0.438 1.587,-0.001l7.833,-7.84c0.438,-0.438 0.438,-1.15 -0,-1.587l-1.588,-1.586Z" style="fill:#434343;"/><path d="M17.361,48.422c-0.249,-0.249 -0.652,-0.248 -0.901,0l-8.519,8.527c-0.248,0.249 -0.248,0.653 0.001,0.901l0.901,0.901c0.249,0.248 0.653,0.248 0.901,-0l8.519,-8.528c0.249,-0.248 0.248,-0.652 -0,-0.901l-0.902,-0.9Z" style="fill:#434343;"/><path d="M35.737,27.697c-0.888,-0.886 -2.328,-0.886 -3.215,0.002l-20.108,20.127c-0.887,0.888 -0.886,2.328 0.001,3.215l3.217,3.213c0.887,0.886 2.327,0.886 3.214,-0.002l20.108,-20.127c0.887,-0.888 0.886,-2.328 -0.001,-3.215l-3.216,-3.213Z" style="fill:#434343;"/><path d="M39.855,14.821c-1.039,-1.038 -2.725,-1.037 -3.763,0.002l-3.762,3.766c-1.038,1.039 -1.038,2.725 0.002,3.763l12.432,12.421c1.039,1.038 2.726,1.037 3.764,-0.002l3.762,-3.765c1.038,-1.039 1.037,-2.726 -0.002,-3.764l-12.433,-12.421Z" style="fill:#434343;"/><path d="M54.677,12.421c-1.783,-1.781 -4.677,-1.78 -6.459,0.003l-5.378,5.384c-1.782,1.784 -1.78,4.678 0.003,6.459c1.783,1.781 4.677,1.78 6.458,-0.003l5.379,-5.384c1.781,-1.783 1.78,-4.677 -0.003,-6.459Z" style="fill:#434343;"/></svg>